<svg width="148" height="56" viewBox="0 0 148 56" fill="none" xmlns="http://www.w3.org/2000/svg">
<path d="M26.728 8.748L21.97 27H16.588L13.676 14.988L10.66 27H5.278L0.65 8.748H5.408L8.034 22.034L11.284 8.748H16.172L19.292 22.034L21.944 8.748H26.728ZM40.3197 23.776H33.5077L32.4157 27H27.7617L34.3657 8.748H39.5137L46.1177 27H41.4117L40.3197 23.776ZM39.1757 20.344L36.9137 13.662L34.6777 20.344H39.1757ZM60.2436 14.52C59.9143 13.9133 59.4376 13.454 58.8136 13.142C58.207 12.8127 57.4876 12.648 56.6556 12.648C55.217 12.648 54.0643 13.1247 53.1976 14.078C52.331 15.014 51.8976 16.2707 51.8976 17.848C51.8976 19.5293 52.3483 20.8467 53.2496 21.8C54.1683 22.736 55.425 23.204 57.0196 23.204C58.1116 23.204 59.0303 22.9267 59.7756 22.372C60.5383 21.8173 61.093 21.02 61.4396 19.98H55.7976V16.704H65.4696V20.838C65.1403 21.9473 64.577 22.9787 63.7796 23.932C62.9996 24.8853 62.003 25.6567 60.7896 26.246C59.5763 26.8353 58.207 27.13 56.6816 27.13C54.879 27.13 53.267 26.74 51.8456 25.96C50.4416 25.1627 49.341 24.062 48.5436 22.658C47.7636 21.254 47.3736 19.6507 47.3736 17.848C47.3736 16.0453 47.7636 14.442 48.5436 13.038C49.341 11.6167 50.4416 10.516 51.8456 9.736C53.2496 8.93867 54.853 8.54 56.6556 8.54C58.8396 8.54 60.677 9.06867 62.1676 10.126C63.6756 11.1833 64.6723 12.648 65.1576 14.52H60.2436ZM84.2603 27H79.8143L72.3783 15.742V27H67.9323V8.748H72.3783L79.8143 20.058V8.748H84.2603V27ZM91.9291 12.31V16.002H97.8831V19.434H91.9291V23.438H98.6631V27H87.4831V8.748H98.6631V12.31H91.9291ZM110.858 27L107.062 20.11H105.996V27H101.55V8.748H109.012C110.45 8.748 111.672 8.99933 112.678 9.502C113.7 10.0047 114.463 10.698 114.966 11.582C115.468 12.4487 115.72 13.4193 115.72 14.494C115.72 15.7073 115.373 16.7907 114.68 17.744C114.004 18.6973 112.998 19.3733 111.664 19.772L115.876 27H110.858ZM105.996 16.964H108.752C109.566 16.964 110.173 16.7647 110.572 16.366C110.988 15.9673 111.196 15.404 111.196 14.676C111.196 13.9827 110.988 13.4367 110.572 13.038C110.173 12.6393 109.566 12.44 108.752 12.44H105.996V16.964Z" fill="#FAFAFA"/>
<path d="M21.118 37.926C21.118 36.158 21.5167 34.572 22.314 33.168C23.1113 31.7467 24.1947 30.6373 25.564 29.84C26.9507 29.0427 28.4847 28.644 30.166 28.644C32.142 28.644 33.8667 29.1207 35.34 30.074C36.8133 31.0273 37.888 32.3793 38.564 34.13H35.73C35.2273 33.038 34.4993 32.1973 33.546 31.608C32.61 31.0187 31.4833 30.724 30.166 30.724C28.9007 30.724 27.7653 31.0187 26.76 31.608C25.7547 32.1973 24.966 33.038 24.394 34.13C23.822 35.2047 23.536 36.47 23.536 37.926C23.536 39.3647 23.822 40.63 24.394 41.722C24.966 42.7967 25.7547 43.6287 26.76 44.218C27.7653 44.8073 28.9007 45.102 30.166 45.102C31.4833 45.102 32.61 44.816 33.546 44.244C34.4993 43.6547 35.2273 42.814 35.73 41.722H38.564C37.888 43.4553 36.8133 44.7987 35.34 45.752C33.8667 46.688 32.142 47.156 30.166 47.156C28.4847 47.156 26.9507 46.766 25.564 45.986C24.1947 45.1887 23.1113 44.088 22.314 42.684C21.5167 41.28 21.118 39.694 21.118 37.926ZM52.798 42.97H44.894L43.438 47H40.942L47.494 28.982H50.224L56.75 47H54.254L52.798 42.97ZM52.122 41.046L48.846 31.894L45.57 41.046H52.122ZM61.9715 30.802V36.86H68.5755V38.81H61.9715V45.05H69.3555V47H59.6055V28.852H69.3555V30.802H61.9715ZM84.0896 28.878V30.802H79.1496V47H76.7836V30.802H71.8176V28.878H84.0896ZM97.714 42.97H89.81L88.354 47H85.858L92.41 28.982H95.14L101.666 47H99.17L97.714 42.97ZM97.038 41.046L93.762 31.894L90.486 41.046H97.038ZM118.77 47H116.404L106.888 32.57V47H104.522V28.852H106.888L116.404 43.256V28.852H118.77V47ZM131.019 47.182C129.337 47.182 127.803 46.792 126.417 46.012C125.03 45.2147 123.929 44.114 123.115 42.71C122.317 41.2887 121.919 39.694 121.919 37.926C121.919 36.158 122.317 34.572 123.115 33.168C123.929 31.7467 125.03 30.646 126.417 29.866C127.803 29.0687 129.337 28.67 131.019 28.67C132.717 28.67 134.26 29.0687 135.647 29.866C137.033 30.646 138.125 31.738 138.923 33.142C139.72 34.546 140.119 36.1407 140.119 37.926C140.119 39.7113 139.72 41.306 138.923 42.71C138.125 44.114 137.033 45.2147 135.647 46.012C134.26 46.792 132.717 47.182 131.019 47.182ZM131.019 45.128C132.284 45.128 133.419 44.8333 134.425 44.244C135.447 43.6547 136.245 42.814 136.817 41.722C137.406 40.63 137.701 39.3647 137.701 37.926C137.701 36.47 137.406 35.2047 136.817 34.13C136.245 33.038 135.456 32.1973 134.451 31.608C133.445 31.0187 132.301 30.724 131.019 30.724C129.736 30.724 128.592 31.0187 127.587 31.608C126.581 32.1973 125.784 33.038 125.195 34.13C124.623 35.2047 124.337 36.47 124.337 37.926C124.337 39.3647 124.623 40.63 125.195 41.722C125.784 42.814 126.581 43.6547 127.587 44.244C128.609 44.8333 129.753 45.128 131.019 45.128Z" fill="#FAFAFA"/>
<path d="M145.049 47C144.197 47 143.475 46.7097 142.885 46.129C142.295 45.5484 142 44.8387 142 44C142 43.1613 142.295 42.4516 142.885 41.871C143.475 41.2903 144.197 41 145.049 41C145.869 41 146.557 41.2903 147.115 41.871C147.705 42.4516 148 43.1613 148 44C148 44.8387 147.705 45.5484 147.115 46.129C146.557 46.7097 145.869 47 145.049 47Z" fill="url(#paint0_linear_138_205)"/>
<defs>
<linearGradient id="paint0_linear_138_205" x1="148" y1="47" x2="141.626" y2="46.5715" gradientUnits="userSpaceOnUse">
<stop stop-color="#4175FC"/>
<stop offset="0.510417" stop-color="#2E4D9C"/>
<stop offset="1" stop-color="#243A6C"/>
</linearGradient>
</defs>
</svg>
